<svg width="142" height="31" viewBox="0 0 142 31" fill="none" xmlns="http://www.w3.org/2000/svg">
<path d="M0 3.95078C0 1.86591 1.69013 0.175781 3.775 0.175781H26.225C28.3099 0.175781 30 1.86591 30 3.95078V26.4008C30 28.4857 28.3099 30.1758 26.225 30.1758H3.775C1.69013 30.1758 0 28.4857 0 26.4008V3.95078Z" fill="#6E58F1"/>
<path d="M4.33301 12.8652C4.33301 10.2775 6.42279 8.17969 9.00066 8.17969H9.26912C10.3596 8.17969 11.2436 9.06706 11.2436 10.1617V15.5687C11.2436 16.6634 10.3596 17.5507 9.26912 17.5507H9.00066C6.42279 17.5507 4.33301 15.453 4.33301 12.8652Z" fill="white"/>
<path d="M12.3022 9.00648C12.3022 8.50395 12.5963 8.04828 13.0531 7.8428L19.8479 4.78674C20.6883 4.40876 21.6376 5.026 21.6376 5.95042V19.88C21.6376 20.8103 20.6771 21.4275 19.8354 21.038L13.0407 17.8933C12.5906 17.685 12.3022 17.2329 12.3022 16.7353V16.0905C12.3022 15.5599 12.6295 15.0848 13.124 14.8975L16.9111 13.4625C17.4589 13.255 17.4589 12.4771 16.9111 12.2696L13.124 10.8346C12.6295 10.6473 12.3022 10.1722 12.3022 9.64163V9.00648Z" fill="white"/>
<path d="M25.6666 13.9811V13.6971C25.6666 12.1288 24.4001 10.8574 22.8377 10.8574C22.7596 10.8574 22.6963 10.921 22.6963 10.9994V16.6788C22.6963 16.7573 22.7596 16.8208 22.8377 16.8208C24.4001 16.8208 25.6666 15.5494 25.6666 13.9811Z" fill="white"/>
<path d="M8.9917 19.3642C8.9917 19.0854 9.21686 18.8594 9.49461 18.8594H12.1259C12.4037 18.8594 12.6288 19.0854 12.6288 19.3642V23.8492C12.6288 24.8574 11.8146 25.6747 10.8103 25.6747L-nan -nanL10.8103 25.6747C9.8059 25.6747 8.9917 24.8574 8.9917 23.8492V19.3642Z" fill="white"/>
<path d="M44.3193 15.9199C45.5692 16.06 46.2637 16.7079 46.2637 17.7585C46.2637 18.5989 45.5692 19.3168 44.6839 19.3168C43.92 19.3168 43.3124 19.1242 42.7221 18.3713L40.5 20.0172C41.7326 21.383 43.2082 21.9258 44.6839 21.9258C46.9581 21.9258 49.0587 20.1048 49.0587 17.5659C49.0587 15.0445 47.2358 13.5386 45.0311 13.3985C43.6596 13.311 43.2256 12.7682 43.2256 12.1729C43.2256 11.455 43.7117 11.0172 44.4235 11.0172C44.8748 11.0172 45.4477 11.2974 45.7949 11.6651L47.9129 10.1067C46.9234 8.91605 45.7081 8.42578 44.4235 8.42578C42.6353 8.42578 40.6215 9.98415 40.6215 12.1904C40.6215 14.239 42.0798 15.6573 44.3193 15.9199Z" fill="white"/>
<path d="M59.0525 17.2857C59.0525 16.1126 59.8684 15.1495 60.9448 15.1495C61.9343 15.1495 62.7502 15.9375 62.7502 17.2857V21.6982H65.1981V17.2857C65.1981 14.7293 63.896 12.6631 61.2052 12.6631C60.3024 12.6631 58.9136 12.9433 58.0803 14.0639C57.5595 13.2585 56.3963 12.6631 55.1117 12.6631C54.3478 12.6631 53.3583 12.9783 52.959 13.4686V12.8557H50.4938V21.6982H52.959V17.2857C52.959 16.1126 53.7749 15.1495 54.695 15.1495C55.8061 15.1495 56.5873 15.7624 56.5873 17.2857V21.6982H59.0525V17.2857Z" fill="white"/>
<path d="M72.8962 12.8557V13.4686C72.5143 13.0483 71.5421 12.6631 70.7609 12.6631C68.4172 12.6631 66.4555 14.7293 66.4555 17.2857C66.4555 19.8071 68.3651 21.8908 70.7609 21.8908C71.5594 21.8908 72.5143 21.5756 72.8962 21.0678V21.6982H75.3614V12.8557H72.8962ZM71.0039 19.4219C69.8755 19.4219 68.9554 18.5464 68.9554 17.2857C68.9554 16.0425 69.8755 15.1495 71.0039 15.1495C72.1497 15.1495 73.0004 16.0425 73.0004 17.2857C73.0004 18.5464 72.1497 19.4219 71.0039 19.4219Z" fill="white"/>
<path d="M82.1111 12.6982C81.8854 12.6631 81.7118 12.6631 81.5035 12.6631C80.8264 12.6631 80.0973 12.8908 79.5591 13.4686V12.8557H77.0939V21.6982H79.5591V17.2857C79.5591 15.8674 80.375 15.1495 81.3298 15.1495C81.6076 15.1495 81.868 15.1845 82.1111 15.2721V12.6982Z" fill="white"/>
<path d="M88.3359 15.1495V12.8557H86.2526V9.8966L83.7874 11.7001V12.8557H82.468V15.1495H83.7874V18.0386C83.7874 20.3324 85.6624 21.8908 88.2838 21.8908V19.4219C87.1554 19.4219 86.2526 18.9666 86.2526 17.9686V15.1495H88.3359Z" fill="white"/>
<path d="M89.47 8.65341V21.6982H91.9352V8.65341H89.47Z" fill="white"/>
<path d="M99.959 18.5289C99.5597 19.1592 98.8132 19.4219 98.0667 19.4219C97.8063 19.4219 97.5632 19.4044 97.3375 19.3168L102.233 15.7799C101.695 14.134 100.028 12.6631 97.8583 12.6631C95.3411 12.6631 93.3099 14.7293 93.3099 17.2857C93.3099 19.8071 95.4279 21.8908 98.0667 21.8908C99.6291 21.8908 101.174 21.1729 101.921 20.0522L99.959 18.5289ZM95.8098 17.2857C95.8098 16.0425 96.7299 15.1495 97.8583 15.1495C98.3271 15.1495 98.7264 15.3071 99.0736 15.5698L95.8792 17.8635C95.8272 17.6884 95.8098 17.4958 95.8098 17.2857Z" fill="white"/>
<path d="M109.55 12.8557V13.4686C109.168 13.0483 108.196 12.6631 107.414 12.6631C105.071 12.6631 103.109 14.7293 103.109 17.2857C103.109 19.8071 105.019 21.8908 107.414 21.8908C108.213 21.8908 109.168 21.5756 109.55 21.0678V21.6982H112.015V12.8557H109.55ZM107.657 19.4219C106.529 19.4219 105.609 18.5464 105.609 17.2857C105.609 16.0425 106.529 15.1495 107.657 15.1495C108.803 15.1495 109.654 16.0425 109.654 17.2857C109.654 18.5464 108.803 19.4219 107.657 19.4219Z" fill="white"/>
<path d="M119.824 8.65341V13.4686C119.442 13.0483 118.47 12.6631 117.688 12.6631C115.345 12.6631 113.383 14.7293 113.383 17.2857C113.383 19.8071 115.293 21.8908 117.688 21.8908C118.487 21.8908 119.442 21.5756 119.824 21.0678V21.6982H122.289V8.65341H119.824ZM117.931 19.4219C116.803 19.4219 115.883 18.5464 115.883 17.2857C115.883 16.0425 116.803 15.1495 117.931 15.1495C119.077 15.1495 119.928 16.0425 119.928 17.2857C119.928 18.5464 119.077 19.4219 117.931 19.4219Z" fill="white"/>
<path d="M125.532 19.2468C124.733 19.2468 124.195 19.8421 124.195 20.595C124.195 21.3129 124.733 21.9258 125.532 21.9258C126.348 21.9258 126.868 21.3129 126.868 20.595C126.868 19.8421 126.33 19.2468 125.532 19.2468Z" fill="white"/>
<path d="M134.861 12.8557V13.4686C134.479 13.0483 133.507 12.6631 132.726 12.6631C130.382 12.6631 128.421 14.7293 128.421 17.2857C128.421 19.8071 130.33 21.8908 132.726 21.8908C133.525 21.8908 134.479 21.5756 134.861 21.0678V21.6982H137.327V12.8557H134.861ZM132.969 19.4219C131.841 19.4219 130.921 18.5464 130.921 17.2857C130.921 16.0425 131.841 15.1495 132.969 15.1495C134.115 15.1495 134.966 16.0425 134.966 17.2857C134.966 18.5464 134.115 19.4219 132.969 19.4219Z" fill="white"/>
<path d="M140.274 11.2974C141.108 11.2974 141.75 10.6495 141.75 9.87909C141.75 9.16119 141.108 8.51333 140.274 8.51333C139.511 8.51333 138.851 9.1787 138.851 9.87909C138.851 10.6495 139.511 11.2974 140.274 11.2974ZM141.524 12.8557H139.059V21.6982H141.524V12.8557Z" fill="white"/>
</svg>
